# xmcd CD database file
#
# Track frame offsets:
#	150
#	21112
#	41885
#	58067
#	82937
#
# Disc length: 1265 seconds
#
# Revision: 1
# Processed by: cddbd v1.5PL3 Copyright (c) Steve Scherf et al.
# Submitted via: CDex 1.51
#
DISCID=3804ef05
DTITLE=井上昌己 - Bitter
DYEAR=1994
DGENRE=JPop
TTITLE0=Suspicion
TTITLE1=彼女の知らない夜がある
TTITLE2=現在はわからない
TTITLE3=もう一度、抱かれたい
TTITLE4=人生は野菜スープ
EXTD=YEAR: 1994
EXTT0=
EXTT1=
EXTT2=
EXTT3=
EXTT4=
PLAYORDER=
